HIERARCHY
ROOT Hips
{
	OFFSET 0.00000 0.00000 0.00000
	CHANNELS 6 Xposition Yposition Zposition Yrotation Zrotation Xrotation 
	JOINT Lumbar
	{
		OFFSET 0 0 0
		CHANNELS 3 Zrotation Xrotation Yrotation
		JOINT Neck
		{
			OFFSET 0.00 0.2701 0.00
			CHANNELS 3 Zrotation Xrotation Yrotation
			End Site
			{
				OFFSET 0.00 0.1379 0.00
			}
		}
		JOINT RightShoulder
		{
			OFFSET 0.0119 0.2289 0.1181
			CHANNELS 3 Zrotation Xrotation Yrotation
			JOINT RightElbow
			{
				OFFSET 0.00 -0.1475 0.00
				CHANNELS 2 Zrotation Yrotation
				JOINT RightWrist
				{
					OFFSET 0.00 -0.1605 0.00
					CHANNELS 2 Zrotation Xrotation
					End Site
					{
						OFFSET 0.0040 -0.1068 0.0006
					}
				}
			}
		}
		JOINT LeftShoulder
		{
			OFFSET 0.0119 0.2289 -0.1181
			CHANNELS 3 Zrotation Xrotation Yrotation
			JOINT LeftElbow
			{
				OFFSET 0.00 -0.1475 0.00
				CHANNELS 2 Zrotation Yrotation
				JOINT LeftWrist
				{
					OFFSET 0.00 -0.1605 0.00
					CHANNELS 2 Zrotation Xrotation
					End Site
					{
						OFFSET 0.0040 -0.1068 -0.0006
					}
				}
			}
		}
	}
	JOINT RightHip
	{
		OFFSET 0.0316 -0.0424 0.0458
		CHANNELS 3 Zrotation Xrotation Yrotation
		JOINT RightKnee
		{
			OFFSET 0.00 -0.2438 0.00
			CHANNELS 1 Zrotation
			JOINT RightAnkle
			{
				OFFSET 0.00 -0.2449 0.00
				CHANNELS 3 Zrotation Xrotation Yrotation
				End Site
				{
					OFFSET 0.1237 -0.0542 0.0051
				}
			}
		}
	}
	JOINT LeftHip
	{
		OFFSET 0.0316 -0.0424 -0.0458
		CHANNELS 3 Zrotation Xrotation Yrotation
		JOINT LeftKnee
		{
			OFFSET 0.00 -0.2438 0.00
			CHANNELS 1 Zrotation
			JOINT LeftAnkle
			{
				OFFSET 0.00 -0.2449 0.00
				CHANNELS 3 Zrotation Xrotation Yrotation
				End Site
				{
					OFFSET 0.1237 -0.0542 -0.0051
				}
			}
		}
	}
}
MOTION
Frames: 28
Frame Time: 0.02
-0.00022 3e-05 -0.00011 -181.23315 -34.1712 -3.26487 42.54377 2.99284 -4.1894 -15.76537 -0.63152 -0.93418 73.72985 -98.85495 55.63344 5.78719 102.17543 9.73099 3.25997 85.11213 97.62639 -55.63374 5.78702 -106.8445 10.28959 -3.84648 39.07481 -1.27569 -9.74425 -22.18686 -6.6318 -2.41692 -3.39479 43.16098 8.11073 5.70914 -27.49 -6.4691 2.10886 3.23885
-0.00019 2e-05 -0.00012 -181.21338 -34.16026 -3.26677 42.53 2.9854 -4.19601 -15.77026 -0.64113 -0.93485 73.76985 -98.83055 55.63351 5.78716 102.17538 9.72471 3.26008 85.58525 97.60564 -55.63374 5.78702 -106.89601 10.2921 -3.92545 39.05788 -1.30884 -9.9245 -22.19176 -6.62866 -2.39439 -3.38489 43.15718 8.11593 5.71584 -27.49467 -6.46889 2.10231 3.23715
-0.00016 1e-05 -0.00012 -181.1937 -34.1494 -3.26866 42.51631 2.97797 -4.20258 -15.77513 -0.65072 -0.93552 73.80991 -98.80619 55.63358 5.78713 102.17533 9.71841 3.26019 86.05718 97.58496 -55.63374 5.78702 -106.94736 10.29457 -4.00421 39.04106 -1.3419 -10.10424 -22.19666 -6.62553 -2.37192 -3.37503 43.15345 8.12117 5.72278 -27.49933 -6.46869 2.09576 3.23545
-0.00013 -0 -0.00013 -181.17401 -34.1385 -3.27055 42.5026 2.97055 -4.20916 -15.78001 -0.6603 -0.93619 73.84982 -98.78185 55.63364 5.78711 102.17529 9.71214 3.2603 86.5289 97.56428 -55.63374 5.78701 -106.9987 10.29707 -4.08294 39.02419 -1.37495 -10.28394 -22.20155 -6.6224 -2.34945 -3.36517 43.14966 8.12636 5.72951 -27.50399 -6.46848 2.08924 3.23376
-9e-05 -1e-05 -0.00013 -181.15422 -34.1275 -3.27243 42.48878 2.96311 -4.21581 -15.78489 -0.66991 -0.93686 73.88961 -98.75748 55.63371 5.78708 102.17525 9.7059 3.26041 87.00169 97.54354 -55.63374 5.78701 -107.05021 10.29961 -4.16188 39.00717 -1.40809 -10.46416 -22.20644 -6.61926 -2.32692 -3.35528 43.1458 8.13147 5.73587 -27.50865 -6.46827 2.08273 3.23208
-6e-05 -2e-05 -0.00014 -181.13476 -34.11693 -3.27435 42.47535 2.95571 -4.22221 -15.78974 -0.67946 -0.93753 73.93026 -98.73315 55.63378 5.78706 102.17517 9.69947 3.26054 87.47175 97.52299 -55.63374 5.78701 -107.10123 10.30193 -4.24024 38.99077 -1.44097 -10.64286 -22.21137 -6.61615 -2.30456 -3.34547 43.14234 8.13699 5.744 -27.51332 -6.46807 2.0761 3.23033
-3e-05 -3e-05 -0.00015 -181.11467 -34.10552 -3.2762 42.46119 2.94824 -4.2291 -15.79467 -0.68912 -0.9382 73.96909 -98.70876 55.63384 5.78703 102.17517 9.69344 3.26062 87.94683 97.50207 -55.63375 5.78701 -107.15316 10.3047 -4.31968 38.97317 -1.47432 -10.82438 -22.21621 -6.61298 -2.2819 -3.33551 43.13806 8.14171 5.74865 -27.51796 -6.46786 2.06971 3.22873
-0 -4e-05 -0.00015 -181.09514 -34.09486 -3.27811 42.44765 2.94083 -4.23554 -15.79951 -0.69867 -0.93887 74.00968 -98.68443 55.63391 5.787 102.17511 9.68703 3.26075 88.41722 97.48149 -55.63375 5.787 -107.20426 10.30705 -4.39811 38.95664 -1.50727 -11.00338 -22.22112 -6.60986 -2.2595 -3.32568 43.13453 8.14712 5.75637 -27.52263 -6.46765 2.06311 3.22699
3e-05 -5e-05 -0.00016 -181.07639 -34.0852 -3.2801 42.43508 2.93352 -4.24139 -15.80427 -0.70814 -0.93955 74.05213 -98.66013 55.63397 5.78698 102.17493 9.6802 3.26092 88.88235 97.46135 -55.63374 5.787 -107.25435 10.30888 -4.47543 38.94154 -1.53964 -11.17909 -22.22618 -6.60681 -2.23747 -3.31602 43.13195 8.15357 5.76843 -27.52732 -6.46745 2.05622 3.22508
6e-05 -6e-05 -0.00016 -181.05343 -34.07007 -3.28165 42.41758 2.92573 -4.25052 -15.8096 -0.71821 -0.94018 74.08301 -98.63555 55.63405 5.78695 102.1753 9.67592 3.2608 89.37919 97.43875 -55.63377 5.78699 -107.31029 10.31371 -4.55949 38.91858 -1.57506 -11.37307 -22.23056 -6.6034 -2.21345 -3.30544 43.12403 8.15461 5.75731 -27.53185 -6.46721 2.05089 3.22413
0.0001 -7e-05 -0.00017 -181.03918 -34.06627 -3.28412 42.41007 2.91887 -4.25283 -15.81366 -0.72693 -0.94093 74.13885 -98.6116 55.6341 5.78693 102.1746 9.66618 3.26134 89.80813 97.42129 -55.63373 5.787 -107.35384 10.31219 -4.62909 38.91195 -1.60423 -11.52891 -22.23629 -6.60074 -2.19356 -3.29677 43.12728 8.16672 5.79391 -27.53675 -6.46706 2.04235 3.2212
0.00015 -7e-05 -0.00016 -181.05041 -34.09583 -3.28914 42.43352 2.91519 -4.23543 -15.81483 -0.73249 -0.94202 74.25857 -98.58913 55.63405 5.78695 102.16996 9.64194 3.26314 90.05789 97.41833 -55.63349 5.78706 -107.3634 10.29351 -4.66064 38.95293 -1.61466 -11.57542 -22.24646 -6.60009 -2.18555 -3.29363 43.16249 8.21256 5.97331 -27.54251 -6.46711 2.02415 3.21239
0.00021 -7e-05 -0.00015 -181.07011 -34.13641 -3.29507 42.46637 2.91232 -4.21136 -15.81463 -0.7366 -0.94323 74.40369 -98.56733 55.63397 5.78698 102.16435 9.61216 3.26563 90.23847 97.42042 -55.6332 5.78714 -107.36054 10.26848 -4.67744 39.00986 -1.61912 -11.5843 -22.25786 -6.6002 -2.18159 -3.29235 43.20871 8.269 6.19895 -27.54868 -6.46724 2.00284 3.20167
0.00027 -7e-05 -0.00014 -181.08485 -34.17045 -3.30056 42.49255 2.90864 -4.19102 -15.81468 -0.74095 -0.94437 74.54082 -98.54542 55.63391 5.787 102.15995 9.58458 3.26827 90.44566 97.41998 -55.63295 5.78721 -107.36332 10.24611 -4.69982 39.05758 -1.62739 -11.61367 -22.26821 -6.59997 -2.17538 -3.29002 43.24902 8.3183 6.39507 -27.5548 -6.46733 1.98355 3.19216
0.00032 -7e-05 -0.00014 -181.10419 -34.21083 -3.30619 42.52877 2.90678 -4.16778 -15.81626 -0.74698 -0.94557 74.66508 -98.52273 55.63384 5.78703 102.15265 9.55825 3.26931 90.67181 97.42068 -55.63263 5.78729 -107.36602 10.22445 -4.7266 39.11333 -1.63103 -11.62939 -22.28061 -6.5997 -2.17085 -3.28853 43.29307 8.37709 6.62514 -27.56036 -6.46742 1.96185 3.18128
0.00039 -7e-05 -0.00011 -181.11611 -34.24082 -3.31172 42.54646 2.90137 -4.14894 -15.81438 -0.74928 -0.94667 74.81954 -98.50175 55.63379 5.78705 102.15074 9.52813 3.2734 90.8437 97.42004 -55.63244 5.78734 -107.36604 10.20008 -4.7411 39.15649 -1.64287 -11.66369 -22.28906 -6.5997 -2.16388 -3.28579 43.33208 8.41904 6.79804 -27.56716 -6.46754 1.94423 3.1727
0.00051 -7e-05 0 -181.10401 -34.23727 -3.31695 42.50908 2.88554 -4.14442 -15.80291 -0.74073 -0.94744 75.07375 -98.48607 55.63378 5.78706 102.1669 9.4876 3.28964 90.86877 97.4157 -55.63263 5.78729 -107.36092 10.16743 -4.72191 39.15752 -1.67904 -11.76742 -22.28598 -6.60006 -2.14832 -3.27868 43.35293 8.40807 6.77895 -27.57739 -6.4676 1.94062 3.17192
0.00066 -7e-05 0.00015 -181.08441 -34.22307 -3.32204 42.45281 2.86619 -4.14449 -15.7881 -0.72862 -0.94813 75.35329 -98.47192 55.63378 5.78706 102.18767 9.44366 3.30825 90.84408 97.40961 -55.63295 5.78721 -107.35368 10.13268 -4.69139 39.14568 -1.7237 -11.88996 -22.27892 -6.60069 -2.13031 -3.27031 43.36836 8.38041 6.70461 -27.58881 -6.4677 1.9409 3.17337
0.0008 -6e-05 0.00029 -181.0692 -34.21546 -3.32707 42.40653 2.8487 -4.14207 -15.77501 -0.7188 -0.94885 75.60637 -98.45661 55.63378 5.78705 102.20474 9.4022 3.32315 90.85155 97.40354 -55.6332 5.78714 -107.34791 10.10052 -4.66838 39.14238 -1.76421 -11.99748 -22.27392 -6.60133 -2.11406 -3.26284 43.38763 8.363 6.67099 -27.59967 -6.46785 1.93807 3.17314
0.00093 -6e-05 0.00039 -181.05017 -34.20174 -3.33258 42.35558 2.83009 -4.14097 -15.76088 -0.70626 -0.9495 75.92329 -98.4434 55.63378 5.78706 102.22972 9.35678 3.34894 90.81704 97.40094 -55.63349 5.78707 -107.33958 10.06141 -4.6353 39.12947 -1.8054 -12.12917 -22.26802 -6.60144 -2.09539 -3.25413 43.40255 8.33508 6.5746 -27.61072 -6.46771 1.94064 3.17557
0.00108 -6e-05 0.00058 -181.03715 -34.19692 -3.33715 42.30859 2.81301 -4.13848 -15.7483 -0.69835 -0.95039 76.11315 -98.42602 55.63379 5.78705 102.23788 9.31865 3.3529 90.85815 97.39059 -55.63374 5.787 -107.33623 10.03613 -4.62021 39.13182 -1.84768 -12.21781 -22.26287 -6.60272 -2.0809 -3.24758 43.42376 8.32447 6.59332 -27.62151 -6.46817 1.93313 3.17311
0.00126 -4e-05 0.00096 -181.0432 -34.22978 -3.33812 42.28771 2.80064 -4.12956 -15.73949 -0.70582 -0.95077 75.94429 -98.39817 55.63385 5.78703 102.21142 9.30354 3.29345 91.12767 97.35962 -55.63384 5.78697 -107.3472 10.05154 -4.6618 39.1929 -1.88725 -12.16221 -22.26236 -6.60714 -2.08038 -3.24821 43.47564 8.36964 6.95867 -27.63266 -6.47049 1.89528 3.15592
0.00146 -1e-05 0.00143 -181.05548 -34.27037 -3.33836 42.26989 2.78999 -4.11932 -15.7326 -0.71776 -0.95157 75.64731 -98.36581 55.63392 5.787 102.16585 9.29554 3.21241 91.47351 97.32081 -55.63389 5.78696 -107.36322 10.08061 -4.72113 39.26775 -1.92824 -12.06614 -22.26249 -6.61274 -2.08383 -3.25089 43.53226 8.43187 7.43808 -27.64331 -6.47338 1.84752 3.13391
0.00165 1e-05 0.00187 -181.0643 -34.29992 -3.33956 42.24314 2.77877 -4.11073 -15.72573 -0.72654 -0.95297 75.40939 -98.33459 55.63398 5.78698 102.12006 9.28296 3.14296 91.78049 97.28535 -55.63397 5.78694 -107.37707 10.10213 -4.7697 39.32673 -1.97107 -12.00314 -22.2612 -6.6178 -2.08416 -3.25199 43.57811 8.48389 7.85578 -27.65321 -6.47588 1.80524 3.11452
0.00185 3e-05 0.00228 -181.07511 -34.3591 -3.33798 42.24576 2.76654 -4.09811 -15.71504 -0.73999 -0.95113 75.16703 -98.30729 55.63407 5.78693 102.11047 9.27594 3.06617 92.10524 97.25075 -55.63405 5.78691 -107.39066 10.12918 -4.82945 39.42359 -2.00401 -11.88114 -22.26431 -6.62284 -2.08973 -3.2557 43.65795 8.54637 8.31571 -27.66704 -6.47893 1.75871 3.09324
0.00204 5e-05 0.00277 -181.08386 -34.36078 -3.34215 42.19044 2.75685 -4.09323 -15.71271 -0.7448 -0.95599 74.90546 -98.27069 55.63409 5.78693 102.02285 9.2591 2.99939 92.40935 97.21248 -55.6341 5.7869 -107.40559 10.14807 -4.87007 39.44783 -2.05739 -11.86928 -22.25877 -6.62823 -2.08563 -3.2546 43.67093 8.59051 8.71244 -27.67285 -6.48094 1.71894 3.07489
0.00223 8e-05 0.00347 -181.08114 -34.18205 -3.36131 41.95467 2.75408 -4.1125 -15.73384 -0.72484 -0.98056 74.60229 -98.20995 55.63389 5.78707 101.70732 9.21302 2.96674 92.65859 97.16624 -55.63405 5.78691 -107.42571 10.14026 -4.85527 39.24339 -2.17018 -12.19652 -22.22633 -6.63414 -2.0517 -3.23867 43.47417 8.58717 8.93404 -27.65409 -6.48017 1.69745 3.06433
0.00242 0.0001 0.00425 -181.07693 -33.94867 -3.38647 41.66398 2.75376 -4.13915 -15.76316 -0.69601 -1.01161 74.28788 -98.13994 55.63361 5.78725 101.31704 9.15683 2.94467 92.88067 97.11647 -55.63397 5.78693 -107.44575 10.12385 -4.82039 38.96977 -2.30287 -12.63135 -22.18566 -6.6404 -2.00831 -3.21801 43.21413 8.56365 9.08399 -27.62773 -6.47829 1.68354 3.05711
